<?xml version="1.0" encoding="UTF-8"?>
<svg id="_레이어_2" data-name="레이어 2" xmlns="http://www.w3.org/2000/svg" viewBox="0 0 167.71 102.66">
  <defs>
    <style>
      .cls-1 {
        font-size: 86.34px;
      }

      .cls-1, .cls-2, .cls-3, .cls-4 {
        font-family: S-CoreDream-9Black, 'S-Core Dream';
        font-weight: 800;
      }

      .cls-2 {
        font-size: 26.09px;
      }

      .cls-3 {
        font-size: 27.02px;
      }

      .cls-5, .cls-6 {
        stroke-width: 0px;
      }

      .cls-4 {
        font-size: 25.5px;
      }

      .cls-6 {
        fill: #fff;
      }
    </style>
  </defs>
  <g id="_그룹_1" data-name="그룹 1">
    <g id="wind_이미지" data-name="wind 이미지">
      <g>
        <path class="cls-6" d="m152.05,32.29v18c-9-9.37-19.77-13.79-32.88-11.92-8.32,1.19-14.65,5.9-20.84,11.1-13.46,11.32-25.46,11.55-39.09.68-3.07-2.45-5.5-2.65-8.19.13,0-6,0-12,0-18,6.37,3.68,12.34,8.68,19.19,10.77,13.25,4.06,24.5-1.29,34.6-10.17,13.33-11.71,25.4-11.79,39.34-.73,2.85,2.26,5.2,2.55,7.87.13Z"/>
        <path class="cls-6" d="m51.05,71.29v-18c5.97,5.99,12.66,10.61,21.26,12.07,13.14,2.22,23.51-2.9,33.08-11.36,12.48-11.03,25.52-11.19,38.21-.73,2.88,2.38,5.36,2.91,8.44,1.03v17c-1.43-1.11-2.89-2.18-4.28-3.34-8.89-7.41-19.03-9.86-30.36-7.69-8.04,1.54-14.02,6.57-20.05,11.63-12.29,10.33-25.17,10.48-37.58.27-2.99-2.46-5.55-3.24-8.74-.87Z"/>
        <path class="cls-5" d="m152.05,54.29c-3.09,1.88-5.56,1.35-8.44-1.03-12.69-10.45-25.74-10.3-38.21.73-9.57,8.46-19.94,13.58-33.08,11.36-8.6-1.46-15.29-6.07-21.26-12.07v-3c2.69-2.78,5.13-2.58,8.19-.13,13.63,10.87,25.63,10.64,39.09-.68,6.19-5.2,12.51-9.91,20.84-11.1,13.11-1.87,23.88,2.55,32.88,11.92v4Z"/>
        <path class="cls-6" d="m51.05,28.29v-12h68c-8.33,2.18-15.17,6.81-21.65,12.35-12.36,10.56-25.19,10.62-37.74.24-3.07-2.53-5.54-3.17-8.61-.59Z"/>
        <path class="cls-5" d="m51.05,28.29c3.07-2.58,5.54-1.94,8.61.59,12.55,10.38,25.38,10.31,37.74-.24,6.49-5.54,13.33-10.18,21.65-12.35h11c8.57,1.74,15.61,6.26,22,12v4c-2.67,2.42-5.02,2.13-7.87-.13-13.95-11.06-26.01-10.98-39.34.73-10.1,8.88-21.34,14.22-34.6,10.17-6.85-2.1-12.82-7.09-19.19-10.77,0-1.33,0-2.67,0-4Z"/>
        <path class="cls-5" d="m51.05,71.29c3.18-2.38,5.74-1.6,8.74.87,12.42,10.22,25.29,10.07,37.58-.27,6.02-5.06,12-10.09,20.05-11.63,11.32-2.17,21.46.28,30.36,7.69,1.39,1.16,2.85,2.23,4.28,3.34v4c-3.11,3.21-5.65,1.8-8.59-.59-12.24-9.98-25.19-10.03-37.17.11-6.41,5.43-13.06,10.19-21.24,12.48h-13c-8.13-2.03-14.88-6.46-21-12v-4Z"/>
        <path class="cls-6" d="m85.05,87.29c8.18-2.29,14.83-7.06,21.24-12.48,11.98-10.14,24.93-10.09,37.17-.11,2.94,2.4,5.48,3.8,8.59.59v12h-67Z"/>
        <path class="cls-6" d="m152.05,28.29c-6.39-5.74-13.43-10.26-22-12h22v12Z"/>
        <path class="cls-6" d="m51.05,75.29c6.12,5.54,12.87,9.97,21,12h-21v-12Z"/>
      </g>
    </g>
    <g id="D">
      <text class="cls-3" transform="translate(148.1 37.3)"><tspan x="0" y="0">D</tspan></text>
    </g>
    <g id="D-2" data-name="D">
      <text class="cls-4" transform="translate(148.89 59.88)"><tspan x="0" y="0">D</tspan></text>
    </g>
    <g id="S">
      <text class="cls-2" transform="translate(148.61 82.13)"><tspan x="0" y="0">S</tspan></text>
    </g>
    <g id="Q">
      <text class="cls-1" transform="translate(0 77.71)"><tspan x="0" y="0">Q</tspan></text>
    </g>
  </g>
</svg>